<?xml version="1.0" encoding="utf-8"?>
<svg width="1024" height="1024" viewBox="0 0 1024 1024" fill="none" xmlns="http://www.w3.org/2000/svg">
  <g>
    <g>
      <path d="M682.667 768C682.667 768 85.3333 768 85.3333 768C38.4 768 0 729.6 0 682.667C0 682.667 0 85.3333 0 85.3333C0 38.4 38.4 0 85.3333 0C85.3333 0 682.667 0 682.667 0C729.6 0 768 38.4 768 85.3333C768 85.3333 768 682.667 768 682.667C768 729.6 729.6 768 682.667 768C682.667 768 682.667 768 682.667 768Z" fill="#7C3AED" transform="translate(128 128)" />
      <path d="M266.667 64.0001C266.667 64.0001 32 64.0001 32 64.0001C14.9333 64.0001 0 49.0667 0 32C0 14.9333 14.9333 0 32 0C32 0 266.667 0 266.667 0C283.733 0 298.667 14.9333 298.667 32C298.667 49.0667 283.733 64.0001 266.667 64.0001C266.667 64.0001 266.667 64.0001 266.667 64.0001Z" fill="#5B21B6" transform="matrix(1 0 0 1 362.667 277.334)" />
      <path d="M26.496 269.568Q20.16 269.568 17.28 267.84Q14.4 266.112 14.4 263.232L14.4 244.224Q14.4 241.056 17.28 239.472Q20.16 237.888 26.496 237.888L30.528 237.888Q37.152 237.888 39.888 239.472Q42.624 241.056 42.624 244.224L42.624 263.232Q42.624 266.112 39.888 267.84Q37.152 269.568 30.528 269.568L26.496 269.568ZM96.768 269.568Q90.432 269.568 87.696 267.84Q84.96 266.112 84.96 263.232L84.96 73.152Q84.96 69.984 87.696 68.4Q90.432 66.816 96.768 66.816L103.968 66.816Q107.136 66.816 109.296 67.392Q111.456 67.968 113.184 69.12Q114.912 70.272 116.064 72.288L204.192 208.8Q207.072 213.12 209.376 217.296Q211.68 221.472 213.696 226.08L214.848 225.792Q214.56 220.896 214.416 216.72Q214.272 212.544 214.272 206.208L214.272 73.152Q214.272 69.984 217.008 68.4Q219.744 66.816 226.08 66.816L228.384 66.816Q235.008 66.816 237.6 68.4Q240.192 69.984 240.192 73.152L240.192 263.232Q240.192 266.112 237.6 267.84Q235.008 269.568 228.384 269.568L221.472 269.568Q218.88 269.568 216.864 269.136Q214.848 268.704 213.552 267.696Q212.256 266.688 211.392 265.536L120.96 125.568Q118.08 121.248 115.92 117.072Q113.76 112.896 111.456 108.288L110.304 108.576Q110.88 113.472 110.88 117.648Q110.88 121.824 110.88 128.16L110.88 263.232Q110.88 266.112 108.288 267.84Q105.696 269.568 99.072 269.568L96.768 269.568ZM300.96 268.992C295.008 268.992 292.032 266.112 292.032 260.352L292.032 76.032Q292.032 67.392 300.96 67.392L401.184 67.392Q406.944 67.392 406.944 76.032L406.944 80.64Q406.944 89.28 401.184 89.28L317.952 89.28L317.952 154.944L392.544 154.944Q398.304 154.944 398.304 163.584L398.304 168.192Q398.304 176.832 392.544 176.832L317.952 176.832L317.952 247.104L401.472 247.104Q407.232 247.104 407.232 255.744L407.232 260.352C407.232 266.112 405.312 268.992 401.472 268.992L300.96 268.992ZM498.816 269.568Q493.056 269.568 490.464 267.84Q487.872 266.112 487.872 263.232L487.872 89.28L432.576 89.28Q427.104 89.28 427.104 80.64L427.104 76.032Q427.104 67.392 432.576 67.392L567.936 67.392Q573.696 67.392 573.696 76.032L573.696 80.64Q573.696 89.28 567.936 89.28L513.792 89.28L513.792 263.232Q513.792 266.112 511.2 267.84Q508.608 269.568 502.848 269.568L498.816 269.568Z" fill="#FFFFFF" transform="translate(222 453)" />
    </g>
  </g>
</svg>